<?xml version="1.0" encoding="UTF-8" standalone="no"?>
<!-- Created with Inkscape (http://www.inkscape.org/) -->

<svg
   xmlns:dc="http://purl.org/dc/elements/1.1/"
   xmlns:cc="http://creativecommons.org/ns#"
   xmlns:rdf="http://www.w3.org/1999/02/22-rdf-syntax-ns#"
   xmlns:svg="http://www.w3.org/2000/svg"
   xmlns="http://www.w3.org/2000/svg"
   xmlns:sodipodi="http://sodipodi.sourceforge.net/DTD/sodipodi-0.dtd"
   xmlns:inkscape="http://www.inkscape.org/namespaces/inkscape"
   width="135.51302"
   height="119.29065"
   id="svg2"
   version="1.1"
   inkscape:version="0.48.4 r9939"
   sodipodi:docname="New document 1">
  <defs
     id="defs4" />
  <sodipodi:namedview
     id="base"
     pagecolor="#ffffff"
     bordercolor="#666666"
     borderopacity="1.0"
     inkscape:pageopacity="0.0"
     inkscape:pageshadow="2"
     inkscape:zoom="3.959798"
     inkscape:cx="89.726788"
     inkscape:cy="32.226615"
     inkscape:document-units="px"
     inkscape:current-layer="layer1"
     showgrid="false"
     fit-margin-top="0"
     fit-margin-left="0"
     fit-margin-right="0"
     fit-margin-bottom="0"
     inkscape:window-width="1920"
     inkscape:window-height="1145"
     inkscape:window-x="1920"
     inkscape:window-y="27"
     inkscape:window-maximized="1" />
  <metadata
     id="metadata7">
    <rdf:RDF>
      <cc:Work
         rdf:about="">
        <dc:format>image/svg+xml</dc:format>
        <dc:type
           rdf:resource="http://purl.org/dc/dcmitype/StillImage" />
        <dc:title></dc:title>
      </cc:Work>
    </rdf:RDF>
  </metadata>
  <g
     inkscape:label="Layer 1"
     inkscape:groupmode="layer"
     id="layer1"
     transform="translate(-5.6373873,-5.5468851)">
    <path
       sodipodi:type="arc"
       style="fill:#ffcc00;fill-opacity:1;stroke:#000000;stroke-width:1.59325504;stroke-linejoin:miter;stroke-miterlimit:4;stroke-opacity:1;stroke-dasharray:none;stroke-dashoffset:0"
       id="path2996"
       sodipodi:cx="92.113289"
       sodipodi:cy="96.821007"
       sodipodi:rx="7.3867407"
       sodipodi:ry="7.3867407"
       d="m 99.50003,96.821007 c 0,4.079583 -3.307157,7.386743 -7.386741,7.386743 -4.079584,0 -7.386741,-3.30716 -7.386741,-7.386743 0,-4.079584 3.307157,-7.386741 7.386741,-7.386741 4.079584,0 7.386741,3.307157 7.386741,7.386741 z"
       transform="matrix(2.6878836,0,0,2.6878836,-128.43533,-157.402)" />
    <path
       sodipodi:type="arc"
       style="fill:#800000;fill-opacity:1;stroke:#000000;stroke-width:1.59325504;stroke-linejoin:miter;stroke-miterlimit:4;stroke-opacity:1;stroke-dasharray:none;stroke-dashoffset:0"
       id="path2996-8"
       sodipodi:cx="92.113289"
       sodipodi:cy="96.821007"
       sodipodi:rx="7.3867407"
       sodipodi:ry="7.3867407"
       d="m 99.50003,96.821007 c 0,4.079583 -3.307157,7.386743 -7.386741,7.386743 -4.079584,0 -7.386741,-3.30716 -7.386741,-7.386743 0,-4.079584 3.307157,-7.386741 7.386741,-7.386741 4.079584,0 7.386741,3.307157 7.386741,7.386741 z"
       transform="matrix(2.6878836,0,0,2.6878836,-219.95647,-157.80754)" />
    <path
       sodipodi:type="arc"
       style="fill:#008000;fill-opacity:1;stroke:#000000;stroke-width:1.59325504;stroke-linejoin:miter;stroke-miterlimit:4;stroke-opacity:1;stroke-dasharray:none;stroke-dashoffset:0"
       id="path2996-8-0"
       sodipodi:cx="92.113289"
       sodipodi:cy="96.821007"
       sodipodi:rx="7.3867407"
       sodipodi:ry="7.3867407"
       d="m 99.50003,96.821007 c 0,4.079583 -3.307157,7.386743 -7.386741,7.386743 -4.079584,0 -7.386741,-3.30716 -7.386741,-7.386743 0,-4.079584 3.307157,-7.386741 7.386741,-7.386741 4.079584,0 7.386741,3.307157 7.386741,7.386741 z"
       transform="matrix(2.6878836,0,0,2.6878836,-174.53386,-232.70077)" />
    <path
       style="fill:none;stroke:#000000;stroke-width:6.42372608;stroke-linecap:butt;stroke-linejoin:miter;stroke-miterlimit:4;stroke-opacity:1;stroke-dasharray:none"
       d="m 61.700282,43.765182 -24.60391,40.82627 0,0"
       id="path3804"
       inkscape:connector-curvature="0" />
    <path
       style="fill:none;stroke:#000000;stroke-width:6.42372608;stroke-linecap:butt;stroke-linejoin:miter;stroke-miterlimit:4;stroke-opacity:1;stroke-dasharray:6.42372612, 12.84745224;stroke-dashoffset:0"
       d="m 47.911276,104.32865 50.830061,0"
       id="path3806"
       inkscape:connector-curvature="0" />
  </g>
</svg>
